<svg width="64" height="64" xmlns="http://www.w3.org/2000/svg">

 <g>
  <title>background</title>
  <rect fill="none" id="canvas_background" height="66" width="66" y="-1" x="-1"/>
 </g>
 <g>
  <title>Layer 1</title>
  <g id="svg_1">
   <path id="svg_2" fill="#241F20" d="m62.37,54.759l-19.74,-19.744c-2.614,-2.614 -1.352,-4.534 -1.352,-4.534l-0.012,-0.013c0.873,-1.798 0.579,-4.015 -0.911,-5.508l-7.684,-7.684c-1.886,-1.887 -4.944,-1.887 -6.831,0l-1.174,1.172l-0.125,0.126c0,0 -0.539,1.072 1.918,1.215l0.001,0.003c0,0 1.13,0.096 2.234,1.2l2.72,2.72c0.994,0.993 1.021,2.029 0.975,2.495c-0.227,1.28 -0.817,2.507 -1.808,3.495c-0.981,0.984 -2.201,1.569 -3.471,1.797c-0.563,0.052 -1.634,-0.045 -2.82,-1.231l-2.062,-2.065c-1.299,-1.299 -1.575,-2.975 -1.575,-2.975l-0.003,0c-0.503,-2.279 -1.191,-1.569 -1.191,-1.569l-1.3,1.3c-1.886,1.885 -1.886,4.944 -0.001,6.831l7.683,7.682c1.57,1.571 3.947,1.814 5.79,0.771l0.014,0.015c0,0 1.691,-1.069 3.967,1.209l20.486,20.489c0,0 2.49,2.445 4.839,0.097l1.938,-1.938c0.655,-0.732 2.042,-2.809 -0.505,-5.356z"/>
   <path id="svg_3" fill="#241F20" d="m40.965,52.071c-1.226,-1.458 -3.194,-0.554 -3.194,-0.554l-0.005,-0.013c-0.168,0.057 -0.333,0.124 -0.504,0.177c-0.054,0.02 -0.088,0.042 -0.151,0.067c-2.688,0.99 -2.713,3.034 -2.713,3.034l0,2.397c-0.038,2.04 -1.666,2.398 -2.508,2.452l-0.975,0c-2.092,0.042 -2.467,-1.237 -2.521,-1.921l0,-2.76c0,-2.538 -2.833,-3.239 -2.833,-3.239l0.009,-0.012c-1.534,-0.454 -2.985,-1.099 -4.348,-1.873c-0.057,-0.025 -0.102,-0.04 -0.164,-0.071c-2.293,-1.149 -4.002,0.472 -4.002,0.472l-1.949,1.949c-1.361,1.356 -2.368,0.724 -2.737,0.389l-0.157,-0.159l-0.006,-0.008l-0.001,0l-1.601,-1.601c-0.001,-0.003 -0.003,-0.003 -0.006,-0.006c-1.253,-1.251 0.377,-2.972 0.594,-3.189l1.901,-1.899c0.001,0 0.001,-0.005 0.001,-0.005c1.465,-1.465 0.314,-3.746 0.314,-3.746s0.016,-0.003 0.019,-0.003c-0.731,-1.328 -1.335,-2.735 -1.766,-4.223c-0.014,-0.039 -0.03,-0.064 -0.045,-0.105c-0.965,-2.668 -3.399,-2.623 -3.446,-2.623l-1.847,0.008c-2.162,0.003 -2.551,-1.402 -2.609,-2.141l-0.005,-1.489c0.013,-0.615 0.236,-2.355 2.423,-2.374c0.001,0 0.001,0 0.001,0l2.367,-0.01c0,0 2.231,0.104 3.023,-2.273c0.011,-0.03 0.026,-0.046 0.036,-0.076c0.475,-1.751 1.16,-3.413 2.05,-4.942c0,0 0,-0.001 0,-0.003c1.13,-2.273 -0.484,-3.978 -0.695,-4.185l-1.61,-1.608c0,0 0,-0.001 -0.003,-0.004c-1.553,-1.553 -0.489,-2.899 -0.12,-3.283l0.839,-0.839c0,0 1.77,-1.874 3.644,0c0.003,0 0.003,0.001 0.005,0.003l1.83,1.83c0.345,0.327 1.753,1.472 3.773,0.491c0.008,-0.003 0.011,-0.003 0.018,-0.006c1.3,-0.736 2.698,-1.314 4.153,-1.758c0.039,-0.016 0.06,-0.035 0.104,-0.053c2.344,-0.921 2.781,-2.366 2.846,-3.113l0,-2.732c0.013,-0.457 0.188,-2.256 2.289,-2.256l1.314,0c0,0 2.397,-0.08 2.397,2.589l0,2.062c0.013,0.588 0.218,2.547 2.478,3.344c0.004,0.001 0.004,0.003 0.01,0.005c1.368,0.377 2.673,0.907 3.911,1.547l0.013,-0.011c0,0 2.82,1.75 4.949,-0.377l1.424,-1.424c0.066,-0.066 1.993,-1.932 3.434,-0.491c0.003,0.001 0.006,0.003 0.006,0.006l1.18,1.177c0,0 1.431,1.742 -0.371,3.545l-1.595,1.595c0,0 -1.663,1.704 -0.455,4.286c0.021,0.045 0.021,0.072 0.04,0.116c0.736,1.341 1.317,2.776 1.745,4.279c0.004,-0.003 0.02,-0.016 0.02,-0.016s0.516,2.59 2.826,2.584l2.242,-0.01l0.06,0l0.101,0c0.065,-0.001 2.738,-0.044 2.744,2.481l0.007,1.061l0,0.003l0,0.261c-0.022,0.625 -0.32,2.187 -2.805,2.196l-2.15,0.007c-1.681,0.016 -2.517,1.393 -2.885,2.269c-0.14,0.383 -0.467,1.625 0.719,2.792l0.305,0.3c0.006,0.005 0.01,0.008 0.014,0.013c1.772,1.9 3.037,-0.761 3.037,-0.761c0.804,-1.336 1.979,-1.604 2.608,-1.647l3.279,0c0.997,0 1.805,-0.807 1.805,-1.805l0,-8.325c0,-0.995 -0.808,-1.805 -1.805,-1.805l-3.128,0c-2.453,0 -3.072,-2.276 -3.072,-2.276s-0.016,0.004 -0.021,0.006c-0.365,-1.05 -0.78,-2.079 -1.277,-3.061c0,-0.003 0,-0.005 -0.003,-0.008c-0.827,-1.82 0.724,-3.371 0.809,-3.452l1.996,-2c0.704,-0.705 0.704,-1.847 0,-2.553l-5.886,-5.886c-0.707,-0.704 -1.849,-0.703 -2.553,0.001l-1.45,1.448c-2.264,2.278 -4.387,1.178 -4.387,1.178l-0.003,0.006c-0.814,-0.39 -1.647,-0.742 -2.503,-1.047c-0.04,-0.019 -0.068,-0.036 -0.109,-0.053c-1.893,-0.775 -2.142,-2.715 -2.166,-3.501l0,-2.099c0,-0.997 -0.809,-1.805 -1.805,-1.805l-8.665,0c-0.995,0 -1.805,0.808 -1.805,1.805l0,2.609c0,2.613 -2.21,3.009 -2.21,3.009l0.013,0.013c-0.956,0.341 -1.893,0.722 -2.795,1.17c-0.016,0.006 -0.025,0.003 -0.041,0.009c-1.802,0.798 -2.798,0.016 -3.051,-0.229l-0.062,-0.062l-0.009,-0.011l-0.001,0l-2.441,-2.446c-0.706,-0.704 -1.849,-0.704 -2.553,-0.003l-5.892,5.884c-0.704,0.706 -0.706,1.847 0,2.552l1.956,1.958c0,0 1.696,1.635 0.855,3.471c0,0.003 0,0.003 0,0.003c-0.487,0.957 -0.896,1.958 -1.258,2.98c-0.025,0.053 -0.049,0.094 -0.074,0.156c-0.75,1.831 -2.143,2.18 -2.888,2.234l-2.846,0c-0.997,0 -1.805,0.81 -1.805,1.805l0,8.325c0,0.998 0.808,1.805 1.805,1.805l3.24,0c1.833,0 2.315,1.691 2.315,1.691s0.013,-0.031 0.021,-0.046c0.375,1.167 0.803,2.31 1.336,3.395c-0.001,0 -0.011,0.005 -0.011,0.005s1.145,1.941 -0.138,3.224l0,0.003l-2.519,2.518c-0.704,0.704 -0.704,1.85 0,2.551l5.887,5.886c0.706,0.706 1.847,0.706 2.551,0l2.266,-2.262l0.005,-0.007l0.101,-0.099c0.311,-0.296 1.402,-1.101 3.507,-0.232c0.022,0.011 0.035,0.014 0.055,0.021c0.803,0.38 1.629,0.726 2.475,1.023l-0.01,0.009c0,0 2.217,0.66 2.217,2.887l0,2.732c0,0.998 0.81,1.805 1.805,1.805l8.665,0c0.996,0 1.805,-0.807 1.805,-1.805l0,-2.992c0.04,-0.66 0.333,-1.906 1.886,-2.517c0.06,-0.025 0.098,-0.046 0.145,-0.067c0.6,-0.209 1.176,-0.464 1.756,-0.712c1.401,-0.778 0.102,-2.364 0.102,-2.364l-0.457,-0.542z"/>
  </g>
 </g>
</svg>