<?xml version="1.0" standalone="no" ?>
<!DOCTYPE svg PUBLIC "-//W3C//DTD SVG 1.1//EN" "http://www.w3.org/Graphics/SVG/1.1/DTD/svg11.dtd">

<svg contentScriptType="text/ecmascript" contentStyleType="text/css" height="24" preserveAspectRatio="xMidYMid meet" version="1.1" viewBox="0 0 24 24" width="24" xmlns="http://www.w3.org/2000/svg" xmlns:docfacto="http://www.docfacto.com/beermat" xmlns:xlink="http://www.w3.org/1999/xlink" zoomAndPan="magnify">
  <path d="M15,14C12.33,14 7,15.33 7,18V20H23V18C23,15.33 17.67,14 15,14M6,10V7H4V10H1V12H4V15H6V12H9V10M15,12A4,4 0 0,0 19,8A4,4 0 0,0 15,4A4,4 0 0,0 11,8A4,4 0 0,0 15,12Z"></path>
</svg>